# xmcd
#
# Track frame offsets:
#	150
#	20268
#	35066
#	51204
#	65198
#	79644
#	97172
#	114526
#	131367
#
# Disc length: 1940 seconds
#
# Revision: 0
# Processed by: cddbd v1.4PL0 Copyright (c) Steve Scherf et al.
# Submitted via: dBpowerAMP V4.0
#
DISCID=79079209
DTITLE=Jesse Lee - Room To Breathe
DYEAR=2003
DGENRE=Country
TTITLE0=River Child
TTITLE1=Back To The Flame
TTITLE2=Time Stands Still
TTITLE3=Room To Breathe
TTITLE4=Happily Ever After You
TTITLE5=Ohio
TTITLE6=Stronger Than That
TTITLE7=Redemption (Movie Title Song)
TTITLE8=You Go Girl
EXTD=
EXTT0=
EXTT1=
EXTT2=
EXTT3=
EXTT4=
EXTT5=
EXTT6=
EXTT7=
EXTT8=
PLAYORDER=
